<svg width="1782" height="960" viewBox="0 0 1782 960" fill="none" xmlns="http://www.w3.org/2000/svg">
<path d="M898.752 760.605C898.347 760.611 897.943 760.62 897.538 760.631C839.619 762.196 784.503 797.656 722.32 837.664C639.445 890.984 544.016 952.381 412.665 952.381C294.625 957.102 49.8276 892.895 14.9603 598.297C-28.6238 230.05 122.831 141.801 260.121 85.1474C397.411 28.4939 621.869 8.8831 816.908 8.8831C826.643 8.8831 838.472 8.53956 852.025 8.14595C882.025 7.27467 920.474 6.15804 963.362 7.97898C1153.76 10.0915 1392.23 30.5578 1521.88 84.058C1659.17 140.711 1810.63 228.96 1767.04 597.208C1732.93 885.404 1497.92 953.113 1377.21 951.5C1377.13 951.794 1377.05 952.087 1376.96 952.381C1357.53 952.381 1338.83 950.988 1320.79 948.44C1213.85 935.763 1131.99 883.095 1059.68 836.575C1002.63 799.868 953.101 763.762 898.752 760.605Z" stroke="white" stroke-width="13"/>
</svg>
