<svg width="1065" height="65" viewBox="0 0 1065 65" fill="none" xmlns="http://www.w3.org/2000/svg">
<path d="M538.988 0.968806C541.624 1.13408 549.198 7.22309 552.327 11.0079C555.456 14.7928 555.95 19.5645 557.926 19.5645C559.902 19.5645 560.561 18.0841 561.22 17.4258C561.878 16.7679 562.207 22.6915 563.689 22.6915C565.172 22.6914 566.654 19.5645 569.124 19.5645C571.594 19.5649 571.429 24.8306 572.911 24.8311C574.393 24.8311 575.382 22.1981 578.017 24.8311C580.651 27.4642 578.84 31.7427 581.475 32.8946C584.109 34.0465 589.215 34.8694 592.179 32.8946C595.143 30.92 596.296 35.8569 597.119 36.6797C597.943 37.5023 599.425 36.6798 602.718 36.6797C606.011 36.6797 617.539 50.1741 625.114 48.1993C632.689 46.2245 630.384 44.5791 640.429 52.9717C650.473 61.3639 658.707 59.39 660.025 59.3897C660.72 59.3897 662.025 59.9627 663.148 60.5411C846.143 62.3827 1037.69 64.9834 1064.53 64.9835H0.177734C136.099 64.9833 276.15 64.6105 314.611 60.0147C322.601 59.0601 356.917 58.709 406.828 58.754C409.965 57.8571 414.107 56.938 419.268 56.2628C433.101 54.4525 458.461 50.6681 466.859 50.0098C475.258 49.3516 476.74 48.0348 478.716 46.2247C480.692 44.4144 485.138 42.1105 486.785 41.4522C488.432 40.7938 493.866 33.5531 494.689 30.92C495.513 28.2874 498.805 24.9968 499.465 24.8311C500.124 24.6666 498.971 23.5143 502.1 22.6915C505.228 21.8686 508.358 21.2102 510.005 19.5645C511.651 17.9188 512.145 13.9702 514.121 12.9825C516.097 11.9951 526.801 11.9946 529.271 8.04498C531.742 4.09542 536.353 0.804241 538.988 0.968806Z" fill="white"/>
</svg>
